<svg width="106" height="46" viewBox="0 0 106 46" fill="none" xmlns="http://www.w3.org/2000/svg">
<path d="M40.3094 29.8601C38.9739 29.8665 37.6385 29.8697 36.2998 29.8729C35.6625 29.8729 34.8554 29.8729 34.2181 29.8761C34.516 29.7512 35.1245 29.4469 35.6112 28.7904C36.2998 27.8649 36.2774 26.8689 36.2614 26.5742C36.2549 26.1995 36.2517 25.8216 36.2453 25.4469C36.2389 24.8225 36.2293 24.198 36.2229 23.5767H35.8098C35.0956 23.5767 34.4743 23.7336 33.9491 24.0538C33.6225 24.2556 33.4111 24.4638 33.363 24.5118C32.7546 25.1331 32.5944 25.9113 32.4952 26.3885C32.4567 26.5807 32.4343 26.744 32.4215 26.8529C32.3446 27.2116 32.1077 28.0602 31.3583 28.7872C30.2598 29.8537 28.8859 29.8601 28.5977 29.8569V33.0594H32.4183V41.6871C32.4183 41.7351 32.4183 41.7735 32.4247 41.8152C32.4471 42.8048 32.7546 43.5926 33.3534 44.1979C33.9811 44.8256 34.801 45.1394 35.8066 45.1394H40.1204V41.9305H37.1613C36.62 41.9305 36.335 41.6582 36.3062 41.1234C36.2998 41.0882 36.2998 41.053 36.2998 41.0145V33.0626H40.4855C40.4279 31.9962 40.3702 30.9265 40.3126 29.8601H40.3094Z" fill="white"/>
<path d="M5.72155 6.97449C6.77839 6.57417 7.19152 6.04575 7.36766 5.62622C7.60464 5.06257 7.51818 4.42846 8.00176 4.07298C8.21633 3.92246 8.45652 3.88083 8.61665 3.87442H11.2684V0.671875H7.26197C6.5478 0.671875 5.92651 0.8288 5.40129 1.14905C5.10025 1.3284 4.90169 1.52055 4.81523 1.60702C4.23236 2.19309 4.03701 2.86882 3.96014 3.2115C3.96014 3.4741 3.9089 4.81597 2.81043 5.88562C1.66072 7.00331 0.235581 6.96808 -0.0078125 6.95527V10.1578H3.87688V22.2378H7.76157V10.1578H11.768V6.95527C9.75676 6.96168 7.73915 6.96808 5.72795 6.97129L5.72155 6.97449Z" fill="white"/>
<path d="M27.658 15.7554C28.2345 15.7682 28.8142 15.7842 29.3938 15.8002C29.9767 15.8163 30.5564 15.8323 31.1328 15.8483C31.1873 15.6689 31.2545 15.3583 31.2097 14.9772C31.1392 14.3911 30.8446 14.01 30.7869 13.9396C30.3194 13.3535 29.6596 13.235 29.4899 13.2094L27.6645 13.0877C27.6645 12.8731 27.658 12.6617 27.658 12.4472V12.4055C27.658 11.8835 27.6068 9.63214 25.8966 8.02766C24.3722 6.59612 22.4539 6.52246 21.1248 6.52246C19.7958 6.52246 18.6941 6.72102 17.7814 7.12134C16.8687 7.52166 16.1353 8.04687 15.5941 8.69059C15.0464 9.3407 14.6525 10.0517 14.4091 10.8363L17.9799 12.034C18.1241 11.3359 18.4347 10.7658 18.9055 10.3239C19.3827 9.88193 20.0968 9.66096 21.0608 9.66096C22.0248 9.66096 22.771 9.89474 23.2161 10.3591C23.6709 10.8171 23.8951 11.4128 23.8951 12.1269V12.9916H19.7029C18.5532 12.9916 17.5348 13.171 16.6381 13.5264C15.7414 13.8883 15.0464 14.4231 14.5404 15.1309C14.0408 15.8387 13.791 16.7194 13.791 17.7634C13.791 18.8074 14.0408 19.6977 14.5404 20.4311C15.0464 21.1581 15.7254 21.7154 16.5932 22.0933C17.4547 22.4712 18.4315 22.6633 19.5172 22.6633C20.6028 22.6633 21.4291 22.5064 22.0472 22.1989C22.6621 21.8915 23.1168 21.536 23.4019 21.1421C23.6933 20.7418 23.8726 20.4151 23.9591 20.1717H24.542V20.2005C24.542 20.8154 24.7918 21.3118 25.2818 21.6769C25.775 22.0484 26.4026 22.2342 27.1649 22.2342H29.7525V19.0252H28.5195C28.2537 19.0252 28.0488 18.9612 27.9046 18.8267C27.5972 18.5416 27.6548 18.1349 27.6613 18.1061V15.7522L27.658 15.7554ZM23.8983 16.1974C23.8983 17.203 23.5556 18.01 22.8638 18.6153C22.1785 19.2206 21.2882 19.5216 20.2025 19.5216C19.3827 19.5216 18.755 19.3487 18.3258 18.9996C17.8903 18.6505 17.6757 18.199 17.6757 17.6449C17.6757 17.0909 17.8839 16.6553 18.2906 16.3479C18.7037 16.0404 19.2674 15.8899 19.9879 15.8899H23.9015V16.1974H23.8983Z" fill="white"/>
<path d="M54.0154 9.12938C53.5511 8.31594 52.933 7.71066 52.1676 7.31034C51.3958 6.91002 50.5407 6.70506 49.5927 6.70506C48.4238 6.70506 47.5175 6.92603 46.8834 7.35517C46.2429 7.78431 45.7497 8.33195 45.4006 8.98847H44.8497C44.5007 8.30953 43.9947 7.7619 43.3381 7.33916C42.6816 6.91963 41.8105 6.70506 40.7217 6.70506C39.7161 6.70506 38.9026 6.89721 38.2845 7.28151C37.6696 7.65941 37.2277 8.10777 36.9587 8.61698H36.4078V6.95485H32.584V22.2374H36.4687V13.2094C36.4687 12.1622 36.7121 11.3552 37.1957 10.7915C37.6792 10.2279 38.3582 9.94283 39.2421 9.94283C40.0267 9.94283 40.632 10.151 41.0611 10.5769C41.4903 10.9965 41.7048 11.6306 41.7048 12.4728V22.2374H45.5895V13.2094C45.5895 12.1622 45.8329 11.3552 46.3165 10.7915C46.8001 10.2279 47.479 9.94283 48.3629 9.94283C49.1412 9.94283 49.7528 10.151 50.182 10.5769C50.6111 10.9965 50.8257 11.6306 50.8257 12.4728V22.2374H54.7104V12.191C54.7104 10.958 54.4766 9.93643 54.0186 9.12618L54.0154 9.12938Z" fill="white"/>
<path d="M73.8909 14.6057C73.8333 13.7794 73.718 13.0781 73.5419 12.4952L70.1247 13.5585C70.3393 14.1573 70.4386 14.8011 70.4098 15.4992C70.3809 16.1974 69.9806 16.9308 69.2056 17.6962C68.4562 18.452 67.5851 18.8587 66.5955 18.9163C65.6059 18.974 64.7284 18.6473 63.9566 17.9396L71.8221 10.0741L70.8869 9.13895C69.7821 8.03408 68.5971 7.27827 67.3225 6.88436C66.0543 6.48404 64.7893 6.436 63.5339 6.74985C62.2785 7.0637 61.1224 7.74905 60.0623 8.80909C58.9863 9.88515 58.2657 11.0573 57.9102 12.3319C57.5547 13.6001 57.574 14.8779 57.9583 16.1621C58.3426 17.4464 59.1048 18.6569 60.2321 19.7906L60.4947 20.0532C61.6284 21.1869 62.8421 21.9427 64.1328 22.3206C65.4298 22.6985 66.714 22.7049 67.9918 22.3431C69.2665 21.978 70.445 21.2574 71.5211 20.1877C72.5106 19.1982 73.1672 18.2278 73.4906 17.2766C73.8173 16.3287 73.9486 15.4384 73.8909 14.6089V14.6057ZM61.2377 13.5585C61.2953 12.745 61.6956 11.97 62.4354 11.227C63.1432 10.5193 63.9118 10.1285 64.7316 10.0645C65.5579 10.0004 66.3073 10.2502 66.9862 10.8139L61.9358 15.8707C61.4138 15.1437 61.18 14.3719 61.2377 13.5585Z" fill="white"/>
<path d="M58.2312 33.0338C57.5331 31.8585 56.5819 30.9714 55.365 30.3533C54.1544 29.7384 52.7901 29.4277 51.2657 29.4277C49.7413 29.4277 48.3834 29.7352 47.1664 30.3533C45.9559 30.9682 45.0047 31.8585 44.3066 33.0338C43.602 34.2027 43.2529 35.6087 43.2529 37.2548V37.748C43.2529 39.3877 43.602 40.7936 44.3066 41.9689C45.0047 43.1378 45.9559 44.0314 47.1664 44.6494C48.3802 45.2643 49.7477 45.575 51.2657 45.575C52.7837 45.575 54.1544 45.2675 55.365 44.6494C56.5787 44.0346 57.5331 43.1378 58.2312 41.9689C58.9294 40.7936 59.2785 39.3877 59.2785 37.748V37.2548C59.2785 35.6087 58.9294 34.2027 58.2312 33.0338ZM58.2537 37.4309C53.9174 38.8945 52.7325 40.0794 51.2689 44.4157C49.8053 40.0794 48.6204 38.8945 44.2842 37.4309C48.6204 35.9673 49.8053 34.7824 51.2689 30.4461C52.7325 34.7824 53.9174 35.9673 58.2537 37.4309Z" fill="white"/>
<path d="M76.9042 32.6783C76.411 31.7239 75.7193 30.9745 74.8225 30.4301C73.9258 29.8824 72.8882 29.6102 71.6936 29.6102C70.3166 29.6102 69.2917 29.8536 68.6128 30.3372C67.9371 30.8208 67.4727 31.33 67.2293 31.8616H66.6721V29.8632H62.8514V45.1458H66.7361V37.3796C66.7361 35.9609 67.0628 34.856 67.7193 34.065C68.3822 33.2739 69.3077 32.88 70.4927 32.88C71.5463 32.88 72.347 33.1714 72.917 33.7447C73.4807 34.3212 73.7593 35.1794 73.7593 36.3324V45.1458H77.644V36.0249C77.644 34.7503 77.4006 33.6358 76.9042 32.6815V32.6783Z" fill="white"/>
<path d="M81.8331 29.8595V45.1421H85.7178V29.8595H81.8331Z" fill="white"/>
<path d="M100.872 35.5798C101.452 36.3965 101.743 37.2323 101.743 38.0874C101.743 38.9425 101.327 39.7848 100.498 40.6142C99.9467 41.1651 99.3286 41.543 98.6464 41.7479C97.9675 41.9497 97.2597 41.9401 96.5328 41.7223C95.8058 41.5045 95.1012 41.0562 94.4191 40.374L94.2013 40.1563C93.5192 39.4741 93.0676 38.7664 92.8498 38.0394C92.6353 37.3156 92.6289 36.6078 92.8306 35.9321C93.0324 35.2468 93.4103 34.6287 93.9611 34.0778C94.5152 33.5238 95.0788 33.1651 95.6553 33.0018C96.2253 32.832 96.789 32.8224 97.3398 32.9698C97.8938 33.1139 98.4159 33.3733 98.9091 33.7512L100.997 30.5294C100.056 29.8761 99.0404 29.4598 97.9483 29.2868C96.8626 29.1139 95.7642 29.2164 94.6593 29.5911C93.5576 29.969 92.4879 30.6767 91.4567 31.708C90.4127 32.752 89.6857 33.9145 89.2694 35.2019C88.8531 36.4894 88.8146 37.7864 89.1509 39.1122C89.4808 40.4349 90.2366 41.6839 91.4119 42.8624L91.7161 43.1667C92.8947 44.3452 94.1405 45.0978 95.4695 45.4309C96.789 45.7639 98.0924 45.7255 99.3798 45.3124C100.667 44.8992 101.83 44.1691 102.874 43.125C103.918 42.081 104.613 41.0242 104.987 39.9193C105.365 38.8176 105.468 37.7191 105.292 36.6303C105.122 35.5414 104.741 34.5166 104.161 33.559L100.872 35.5798Z" fill="white"/>
<path d="M86.6467 25.6232C84.8629 26.2253 84.3761 26.712 83.7741 28.4959C83.172 26.712 82.6852 26.2253 80.9014 25.6232C82.6852 25.0211 83.172 24.5343 83.7741 22.7505C84.3761 24.5343 84.8629 25.0211 86.6467 25.6232Z" fill="white"/>
</svg>
